# xmcd CD database file
#
# Track frame offsets:
#	150
#	17264
#	30505
#	45043
#	56946
#	70007
#	84369
#	99819
#	115558
#	128038
#	141511
#	155593
#
# Disc length: 2392 seconds
#
# Revision: 0
# Processed by: cddbd v1.5.1PL0 Copyright (c) Steve Scherf et al.
# Submitted via: CDex 1.51
#
DISCID=8709560c
DTITLE=Just Friends - Remember
DYEAR=2004
DGENRE=Country
TTITLE0=De sista ljuva åren
TTITLE1=Help Me Make It Through The Night
TTITLE2=Crazy
TTITLE3=Before The Next Teardrop Falls
TTITLE4=If I Said You Had A Beautiful Body
TTITLE5=Swinging Fifties
TTITLE6=Something Stupid
TTITLE7=Just A Gigolo
TTITLE8=The Most Beautiful Girl
TTITLE9=Fotoalbummet
TTITLE10=Storms Never Last
TTITLE11=Elvis Medley
EXTD=YEAR: 2004
EXTT0=
EXTT1=
EXTT2=
EXTT3=
EXTT4=
EXTT5=
EXTT6=
EXTT7=
EXTT8=
EXTT9=
EXTT10=
EXTT11=
PLAYORDER=
